<svg xmlns="http://www.w3.org/2000/svg" xmlns:xlink="http://www.w3.org/1999/xlink" width="432" zoomAndPan="magnify" viewBox="0 0 324 323.999988" height="432" preserveAspectRatio="xMidYMid meet" version="1.0"><path fill="#000000" d="M 266.617188 200.527344 C 259.753906 188.078125 251.183594 175.140625 241.105469 162 C 251.183594 148.859375 259.753906 135.921875 266.617188 123.472656 C 298.304688 133.503906 317.128906 147.808594 317.128906 162 C 317.128906 176.191406 298.304688 190.496094 266.617188 200.527344 Z M 220.828125 186.382812 C 226.398438 180.175781 231.730469 173.878906 236.730469 167.597656 C 245.785156 179.519531 253.546875 191.242188 259.871094 202.539062 C 247.417969 206.054688 233.644531 208.855469 218.796875 210.886719 C 219.703125 202.890625 220.378906 194.667969 220.828125 186.382812 Z M 201.351562 263.949219 C 191.292969 297.25 176.582031 317.128906 162 317.128906 C 147.808594 317.128906 133.503906 298.304688 123.472656 266.617188 C 135.914062 259.753906 148.851562 251.1875 162.003906 241.097656 C 167.035156 244.957031 172.09375 248.636719 177.078125 252.058594 C 177.671875 252.46875 178.351562 252.660156 179.019531 252.660156 C 180.113281 252.660156 181.1875 252.144531 181.855469 251.171875 C 182.929688 249.605469 182.535156 247.46875 180.96875 246.394531 C 176.550781 243.363281 172.070312 240.117188 167.597656 236.726562 C 173.886719 231.71875 180.183594 226.390625 186.371094 220.832031 C 194.664062 220.386719 202.882812 219.703125 210.882812 218.796875 C 208.628906 235.28125 205.429688 250.453125 201.351562 263.949219 Z M 52.308594 271.691406 C 47.214844 266.597656 45.445312 258.320312 47.046875 247.09375 C 48.578125 236.324219 53.320312 223.105469 60.785156 208.734375 C 74.425781 212.679688 89.636719 215.765625 106.066406 217.933594 C 108.234375 234.363281 111.320312 249.570312 115.269531 263.21875 C 110.421875 265.734375 105.699219 267.953125 101.183594 269.824219 C 78.054688 279.421875 60.699219 280.085938 52.308594 271.691406 Z M 47.046875 76.90625 C 45.445312 65.675781 47.214844 57.402344 52.308594 52.308594 C 57.402344 47.210938 65.679688 45.4375 76.90625 47.039062 C 87.675781 48.578125 100.894531 53.316406 115.265625 60.785156 C 111.320312 74.429688 108.234375 89.636719 106.066406 106.066406 C 97.75 107.164062 89.648438 108.515625 81.953125 110.089844 C 80.09375 110.472656 78.898438 112.285156 79.277344 114.144531 C 79.65625 116.003906 81.472656 117.203125 83.332031 116.820312 C 90.324219 115.390625 97.664062 114.148438 105.203125 113.113281 C 104.296875 121.109375 103.621094 129.332031 103.171875 137.625 C 97.636719 143.789062 92.304688 150.085938 87.273438 156.402344 C 77.214844 143.152344 68.746094 130.160156 62.082031 117.734375 C 53.867188 102.402344 48.667969 88.285156 47.046875 76.90625 Z M 162 6.871094 C 176.582031 6.871094 191.292969 26.75 201.351562 60.050781 C 205.429688 73.546875 208.632812 88.71875 210.886719 105.203125 C 202.890625 104.296875 194.667969 103.621094 186.375 103.171875 C 180.183594 97.613281 173.890625 92.28125 167.597656 87.273438 C 175.148438 81.542969 182.691406 76.277344 190.066406 71.589844 C 191.667969 70.574219 192.140625 68.449219 191.121094 66.847656 C 190.105469 65.246094 187.984375 64.773438 186.382812 65.789062 C 178.378906 70.878906 170.1875 76.632812 162.007812 82.902344 C 148.867188 72.824219 135.925781 64.25 123.472656 57.382812 C 133.503906 25.695312 147.808594 6.871094 162 6.871094 Z M 221.285156 148.542969 C 225.144531 153.015625 228.859375 157.511719 232.398438 162 C 228.859375 166.484375 225.144531 170.984375 221.285156 175.457031 C 221.417969 171.003906 221.496094 166.507812 221.496094 162 C 221.496094 157.492188 221.417969 152.992188 221.285156 148.542969 Z M 175.453125 102.714844 C 171 102.582031 166.503906 102.503906 162 102.503906 C 157.5 102.503906 153.003906 102.582031 148.550781 102.714844 C 153.023438 98.859375 157.519531 95.148438 162.003906 91.609375 C 166.492188 95.148438 170.988281 98.863281 175.453125 102.714844 Z M 121.460938 64.128906 C 132.765625 70.457031 144.484375 78.21875 156.410156 87.273438 C 150.125 92.277344 143.828125 97.609375 137.628906 103.171875 C 129.289062 103.621094 121.066406 104.296875 113.113281 105.199219 C 115.144531 90.359375 117.945312 76.582031 121.460938 64.128906 Z M 184.800781 214.039062 C 169.921875 214.816406 154.09375 214.816406 139.203125 214.039062 C 130 213.570312 120.941406 212.808594 112.222656 211.777344 C 111.191406 203.007812 110.429688 193.949219 109.960938 184.800781 C 109.574219 177.355469 109.378906 169.683594 109.378906 162 C 109.378906 154.316406 109.574219 146.644531 109.960938 139.199219 C 110.429688 130.050781 111.191406 120.992188 112.222656 112.222656 C 120.9375 111.195312 129.996094 110.433594 139.203125 109.960938 C 139.203125 109.960938 139.203125 109.960938 139.207031 109.960938 C 154.09375 109.183594 169.914062 109.1875 184.800781 109.960938 C 193.949219 110.429688 203.007812 111.191406 211.777344 112.222656 C 212.808594 120.992188 213.570312 130.050781 214.039062 139.195312 C 214.425781 146.632812 214.621094 154.304688 214.621094 162 C 214.621094 169.695312 214.425781 177.367188 214.039062 184.808594 C 213.570312 193.949219 212.808594 203.007812 211.777344 211.777344 C 203.003906 212.808594 193.945312 213.570312 184.800781 214.039062 Z M 103.171875 186.375 C 103.621094 194.671875 104.296875 202.890625 105.203125 210.886719 C 90.359375 208.855469 76.582031 206.054688 64.128906 202.539062 C 70.457031 191.242188 78.21875 179.515625 87.273438 167.59375 C 92.304688 173.910156 97.636719 180.210938 103.171875 186.375 Z M 102.714844 175.449219 C 98.875 171 95.160156 166.503906 91.601562 162 C 95.160156 157.496094 98.875 153 102.714844 148.546875 C 102.582031 153 102.503906 157.496094 102.503906 162 C 102.503906 166.503906 102.582031 171 102.714844 175.449219 Z M 121.460938 259.871094 C 117.945312 247.417969 115.148438 233.640625 113.117188 218.796875 C 121.070312 219.703125 129.292969 220.382812 137.632812 220.832031 C 143.832031 226.398438 150.128906 231.726562 156.410156 236.726562 C 144.476562 245.785156 132.75 253.546875 121.460938 259.871094 Z M 162.003906 232.390625 C 157.519531 228.855469 153.023438 225.140625 148.550781 221.285156 C 153.003906 221.417969 157.496094 221.496094 162 221.496094 C 166.503906 221.496094 171 221.417969 175.453125 221.285156 C 170.988281 225.136719 166.492188 228.851562 162.003906 232.390625 Z M 259.871094 121.460938 C 253.546875 132.757812 245.785156 144.480469 236.730469 156.402344 C 231.730469 150.121094 226.398438 143.824219 220.828125 137.617188 C 220.378906 129.328125 219.703125 121.109375 218.796875 113.113281 C 233.644531 115.144531 247.417969 117.945312 259.871094 121.460938 Z M 307.582031 135.386719 C 298.367188 128.472656 285.695312 122.402344 269.894531 117.308594 C 277.46875 102.535156 282.136719 89.28125 283.761719 77.878906 C 285.683594 64.390625 283.257812 54.15625 276.550781 47.449219 C 267.929688 38.824219 253.078125 37.296875 233.621094 43.027344 C 231.800781 43.5625 230.757812 45.472656 231.292969 47.292969 C 231.828125 49.109375 233.742188 50.152344 235.5625 49.617188 C 247.347656 46.148438 263.179688 43.796875 271.691406 52.308594 C 276.789062 57.402344 278.5625 65.679688 276.960938 76.90625 C 275.421875 87.675781 270.683594 100.890625 263.214844 115.265625 C 249.574219 111.320312 234.363281 108.234375 217.933594 106.066406 C 215.621094 88.535156 212.261719 72.394531 207.929688 58.0625 C 202.597656 40.402344 196.097656 26.390625 188.613281 16.417969 C 180.4375 5.523438 171.484375 0 162 0 C 152.515625 0 143.5625 5.523438 135.386719 16.417969 C 128.472656 25.632812 122.402344 38.304688 117.308594 54.105469 C 102.535156 46.53125 89.28125 41.863281 77.878906 40.238281 C 64.394531 38.316406 54.15625 40.742188 47.449219 47.449219 C 40.746094 54.152344 38.320312 64.390625 40.242188 77.875 C 42.003906 90.214844 47.3125 104.71875 56.027344 120.980469 C 63.105469 134.175781 72.136719 147.964844 82.898438 162 C 72.820312 175.140625 64.253906 188.078125 57.382812 200.527344 C 25.695312 190.496094 6.871094 176.1875 6.871094 162 C 6.871094 150.4375 19.050781 138.871094 41.160156 129.429688 C 42.90625 128.683594 43.71875 126.664062 42.96875 124.917969 C 42.226562 123.175781 40.207031 122.363281 38.460938 123.105469 C 13.300781 133.851562 0 147.300781 0 162 C 0 171.484375 5.523438 180.4375 16.417969 188.613281 C 25.632812 195.527344 38.304688 201.597656 54.105469 206.691406 C 46.53125 221.464844 41.871094 234.71875 40.242188 246.121094 C 38.320312 259.605469 40.746094 269.84375 47.449219 276.550781 C 52.707031 281.804688 60.121094 284.433594 69.449219 284.433594 C 78.992188 284.433594 90.539062 281.679688 103.8125 276.171875 C 103.816406 276.171875 103.820312 276.167969 103.820312 276.167969 C 108.160156 274.367188 112.6875 272.261719 117.308594 269.894531 C 122.402344 285.695312 128.472656 298.367188 135.386719 307.582031 C 143.5625 318.476562 152.515625 324 162 324 C 171.484375 324 180.4375 318.476562 188.613281 307.582031 C 196.097656 297.609375 202.597656 283.597656 207.929688 265.9375 C 212.261719 251.605469 215.621094 235.464844 217.933594 217.933594 C 234.367188 215.765625 249.574219 212.679688 263.214844 208.734375 C 270.683594 223.105469 275.421875 236.324219 276.960938 247.09375 C 278.5625 258.320312 276.789062 266.597656 271.691406 271.691406 C 263.703125 279.679688 247.402344 279.441406 225.789062 271.019531 C 224.019531 270.328125 222.027344 271.207031 221.339844 272.972656 C 220.648438 274.742188 221.523438 276.730469 223.292969 277.417969 C 235.257812 282.085938 245.753906 284.414062 254.550781 284.414062 C 263.886719 284.414062 271.308594 281.792969 276.550781 276.550781 C 283.257812 269.84375 285.683594 259.609375 283.761719 246.121094 C 282.136719 234.71875 277.46875 221.464844 269.894531 206.691406 C 285.695312 201.597656 298.367188 195.527344 307.582031 188.613281 C 318.476562 180.4375 324 171.484375 324 162 C 324 152.515625 318.476562 143.5625 307.582031 135.386719 " fill-opacity="1" fill-rule="nonzero"/><path fill="#000000" d="M 193.039062 158.675781 L 162.234375 189.480469 L 131.429688 158.675781 C 128.542969 155.789062 126.953125 151.953125 126.953125 147.871094 C 126.953125 143.789062 128.542969 139.953125 131.429688 137.066406 C 134.316406 134.179688 138.152344 132.59375 142.230469 132.59375 C 146.3125 132.59375 150.152344 134.179688 153.035156 137.066406 L 159.804688 143.832031 C 161.148438 145.175781 163.320312 145.175781 164.664062 143.832031 L 171.429688 137.066406 C 174.316406 134.179688 178.152344 132.59375 182.230469 132.59375 C 186.3125 132.59375 190.148438 134.179688 193.039062 137.066406 C 195.921875 139.953125 197.511719 143.789062 197.511719 147.871094 C 197.511719 151.953125 195.921875 155.789062 193.039062 158.675781 Z M 197.894531 132.210938 C 193.710938 128.027344 188.148438 125.71875 182.230469 125.71875 C 176.316406 125.71875 170.753906 128.027344 166.570312 132.210938 L 162.234375 136.546875 L 157.898438 132.210938 C 153.710938 128.027344 148.152344 125.71875 142.230469 125.71875 C 136.316406 125.71875 130.757812 128.027344 126.570312 132.210938 C 122.386719 136.390625 120.082031 141.953125 120.082031 147.871094 C 120.082031 153.789062 122.386719 159.351562 126.570312 163.535156 L 159.804688 196.765625 C 160.476562 197.4375 161.355469 197.773438 162.234375 197.773438 C 163.113281 197.773438 163.992188 197.4375 164.664062 196.765625 L 197.894531 163.535156 C 202.078125 159.351562 204.382812 153.789062 204.382812 147.871094 C 204.382812 141.953125 202.078125 136.390625 197.894531 132.210938 " fill-opacity="1" fill-rule="nonzero"/><path fill="#000000" d="M 266.617188 200.527344 C 259.753906 188.078125 251.183594 175.140625 241.105469 162 C 251.183594 148.859375 259.753906 135.921875 266.617188 123.472656 C 298.304688 133.503906 317.128906 147.808594 317.128906 162 C 317.128906 176.191406 298.304688 190.496094 266.617188 200.527344 Z M 220.828125 186.382812 C 226.398438 180.175781 231.730469 173.878906 236.730469 167.597656 C 245.785156 179.519531 253.546875 191.242188 259.871094 202.539062 C 247.417969 206.054688 233.644531 208.855469 218.796875 210.886719 C 219.703125 202.890625 220.378906 194.667969 220.828125 186.382812 Z M 201.351562 263.949219 C 191.292969 297.25 176.582031 317.128906 162 317.128906 C 147.808594 317.128906 133.503906 298.304688 123.472656 266.617188 C 135.914062 259.753906 148.851562 251.1875 162.003906 241.097656 C 167.035156 244.957031 172.09375 248.636719 177.078125 252.058594 C 177.671875 252.46875 178.351562 252.660156 179.019531 252.660156 C 180.113281 252.660156 181.1875 252.144531 181.855469 251.171875 C 182.929688 249.605469 182.535156 247.46875 180.96875 246.394531 C 176.550781 243.363281 172.070312 240.117188 167.597656 236.726562 C 173.886719 231.71875 180.183594 226.390625 186.371094 220.832031 C 194.664062 220.386719 202.882812 219.703125 210.882812 218.796875 C 208.628906 235.28125 205.429688 250.453125 201.351562 263.949219 Z M 52.308594 271.691406 C 47.214844 266.597656 45.445312 258.320312 47.046875 247.09375 C 48.578125 236.324219 53.320312 223.105469 60.785156 208.734375 C 74.425781 212.679688 89.636719 215.765625 106.066406 217.933594 C 108.234375 234.363281 111.320312 249.570312 115.269531 263.21875 C 110.421875 265.734375 105.699219 267.953125 101.183594 269.824219 C 78.054688 279.421875 60.699219 280.085938 52.308594 271.691406 Z M 47.046875 76.90625 C 45.445312 65.675781 47.214844 57.402344 52.308594 52.308594 C 57.402344 47.210938 65.679688 45.4375 76.90625 47.039062 C 87.675781 48.578125 100.894531 53.316406 115.265625 60.785156 C 111.320312 74.429688 108.234375 89.636719 106.066406 106.066406 C 97.75 107.164062 89.648438 108.515625 81.953125 110.089844 C 80.09375 110.472656 78.898438 112.285156 79.277344 114.144531 C 79.65625 116.003906 81.472656 117.203125 83.332031 116.820312 C 90.324219 115.390625 97.664062 114.148438 105.203125 113.113281 C 104.296875 121.109375 103.621094 129.332031 103.171875 137.625 C 97.636719 143.789062 92.304688 150.085938 87.273438 156.402344 C 77.214844 143.152344 68.746094 130.160156 62.082031 117.734375 C 53.867188 102.402344 48.667969 88.285156 47.046875 76.90625 Z M 162 6.871094 C 176.582031 6.871094 191.292969 26.75 201.351562 60.050781 C 205.429688 73.546875 208.632812 88.71875 210.886719 105.203125 C 202.890625 104.296875 194.667969 103.621094 186.375 103.171875 C 180.183594 97.613281 173.890625 92.28125 167.597656 87.273438 C 175.148438 81.542969 182.691406 76.277344 190.066406 71.589844 C 191.667969 70.574219 192.140625 68.449219 191.121094 66.847656 C 190.105469 65.246094 187.984375 64.773438 186.382812 65.789062 C 178.378906 70.878906 170.1875 76.632812 162.007812 82.902344 C 148.867188 72.824219 135.925781 64.25 123.472656 57.382812 C 133.503906 25.695312 147.808594 6.871094 162 6.871094 Z M 221.285156 148.542969 C 225.144531 153.015625 228.859375 157.511719 232.398438 162 C 228.859375 166.484375 225.144531 170.984375 221.285156 175.457031 C 221.417969 171.003906 221.496094 166.507812 221.496094 162 C 221.496094 157.492188 221.417969 152.992188 221.285156 148.542969 Z M 175.453125 102.714844 C 171 102.582031 166.503906 102.503906 162 102.503906 C 157.5 102.503906 153.003906 102.582031 148.550781 102.714844 C 153.023438 98.859375 157.519531 95.148438 162.003906 91.609375 C 166.492188 95.148438 170.988281 98.863281 175.453125 102.714844 Z M 121.460938 64.128906 C 132.765625 70.457031 144.484375 78.21875 156.410156 87.273438 C 150.125 92.277344 143.828125 97.609375 137.628906 103.171875 C 129.289062 103.621094 121.066406 104.296875 113.113281 105.199219 C 115.144531 90.359375 117.945312 76.582031 121.460938 64.128906 Z M 184.800781 214.039062 C 169.921875 214.816406 154.09375 214.816406 139.203125 214.039062 C 130 213.570312 120.941406 212.808594 112.222656 211.777344 C 111.191406 203.007812 110.429688 193.949219 109.960938 184.800781 C 109.574219 177.355469 109.378906 169.683594 109.378906 162 C 109.378906 154.316406 109.574219 146.644531 109.960938 139.199219 C 110.429688 130.050781 111.191406 120.992188 112.222656 112.222656 C 120.9375 111.195312 129.996094 110.433594 139.203125 109.960938 C 139.203125 109.960938 139.203125 109.960938 139.207031 109.960938 C 154.09375 109.183594 169.914062 109.1875 184.800781 109.960938 C 193.949219 110.429688 203.007812 111.191406 211.777344 112.222656 C 212.808594 120.992188 213.570312 130.050781 214.039062 139.195312 C 214.425781 146.632812 214.621094 154.304688 214.621094 162 C 214.621094 169.695312 214.425781 177.367188 214.039062 184.808594 C 213.570312 193.949219 212.808594 203.007812 211.777344 211.777344 C 203.003906 212.808594 193.945312 213.570312 184.800781 214.039062 Z M 103.171875 186.375 C 103.621094 194.671875 104.296875 202.890625 105.203125 210.886719 C 90.359375 208.855469 76.582031 206.054688 64.128906 202.539062 C 70.457031 191.242188 78.21875 179.515625 87.273438 167.59375 C 92.304688 173.910156 97.636719 180.210938 103.171875 186.375 Z M 102.714844 175.449219 C 98.875 171 95.160156 166.503906 91.601562 162 C 95.160156 157.496094 98.875 153 102.714844 148.546875 C 102.582031 153 102.503906 157.496094 102.503906 162 C 102.503906 166.503906 102.582031 171 102.714844 175.449219 Z M 121.460938 259.871094 C 117.945312 247.417969 115.148438 233.640625 113.117188 218.796875 C 121.070312 219.703125 129.292969 220.382812 137.632812 220.832031 C 143.832031 226.398438 150.128906 231.726562 156.410156 236.726562 C 144.476562 245.785156 132.75 253.546875 121.460938 259.871094 Z M 162.003906 232.390625 C 157.519531 228.855469 153.023438 225.140625 148.550781 221.285156 C 153.003906 221.417969 157.496094 221.496094 162 221.496094 C 166.503906 221.496094 171 221.417969 175.453125 221.285156 C 170.988281 225.136719 166.492188 228.851562 162.003906 232.390625 Z M 259.871094 121.460938 C 253.546875 132.757812 245.785156 144.480469 236.730469 156.402344 C 231.730469 150.121094 226.398438 143.824219 220.828125 137.617188 C 220.378906 129.328125 219.703125 121.109375 218.796875 113.113281 C 233.644531 115.144531 247.417969 117.945312 259.871094 121.460938 Z M 307.582031 135.386719 C 298.367188 128.472656 285.695312 122.402344 269.894531 117.308594 C 277.46875 102.535156 282.136719 89.28125 283.761719 77.878906 C 285.683594 64.390625 283.257812 54.15625 276.550781 47.449219 C 267.929688 38.824219 253.078125 37.296875 233.621094 43.027344 C 231.800781 43.5625 230.757812 45.472656 231.292969 47.292969 C 231.828125 49.109375 233.742188 50.152344 235.5625 49.617188 C 247.347656 46.148438 263.179688 43.796875 271.691406 52.308594 C 276.789062 57.402344 278.5625 65.679688 276.960938 76.90625 C 275.421875 87.675781 270.683594 100.890625 263.214844 115.265625 C 249.574219 111.320312 234.363281 108.234375 217.933594 106.066406 C 215.621094 88.535156 212.261719 72.394531 207.929688 58.0625 C 202.597656 40.402344 196.097656 26.390625 188.613281 16.417969 C 180.4375 5.523438 171.484375 0 162 0 C 152.515625 0 143.5625 5.523438 135.386719 16.417969 C 128.472656 25.632812 122.402344 38.304688 117.308594 54.105469 C 102.535156 46.53125 89.28125 41.863281 77.878906 40.238281 C 64.394531 38.316406 54.15625 40.742188 47.449219 47.449219 C 40.746094 54.152344 38.320312 64.390625 40.242188 77.875 C 42.003906 90.214844 47.3125 104.71875 56.027344 120.980469 C 63.105469 134.175781 72.136719 147.964844 82.898438 162 C 72.820312 175.140625 64.253906 188.078125 57.382812 200.527344 C 25.695312 190.496094 6.871094 176.1875 6.871094 162 C 6.871094 150.4375 19.050781 138.871094 41.160156 129.429688 C 42.90625 128.683594 43.71875 126.664062 42.96875 124.917969 C 42.226562 123.175781 40.207031 122.363281 38.460938 123.105469 C 13.300781 133.851562 0 147.300781 0 162 C 0 171.484375 5.523438 180.4375 16.417969 188.613281 C 25.632812 195.527344 38.304688 201.597656 54.105469 206.691406 C 46.53125 221.464844 41.871094 234.71875 40.242188 246.121094 C 38.320312 259.605469 40.746094 269.84375 47.449219 276.550781 C 52.707031 281.804688 60.121094 284.433594 69.449219 284.433594 C 78.992188 284.433594 90.539062 281.679688 103.8125 276.171875 C 103.816406 276.171875 103.820312 276.167969 103.820312 276.167969 C 108.160156 274.367188 112.6875 272.261719 117.308594 269.894531 C 122.402344 285.695312 128.472656 298.367188 135.386719 307.582031 C 143.5625 318.476562 152.515625 324 162 324 C 171.484375 324 180.4375 318.476562 188.613281 307.582031 C 196.097656 297.609375 202.597656 283.597656 207.929688 265.9375 C 212.261719 251.605469 215.621094 235.464844 217.933594 217.933594 C 234.367188 215.765625 249.574219 212.679688 263.214844 208.734375 C 270.683594 223.105469 275.421875 236.324219 276.960938 247.09375 C 278.5625 258.320312 276.789062 266.597656 271.691406 271.691406 C 263.703125 279.679688 247.402344 279.441406 225.789062 271.019531 C 224.019531 270.328125 222.027344 271.207031 221.339844 272.972656 C 220.648438 274.742188 221.523438 276.730469 223.292969 277.417969 C 235.257812 282.085938 245.753906 284.414062 254.550781 284.414062 C 263.886719 284.414062 271.308594 281.792969 276.550781 276.550781 C 283.257812 269.84375 285.683594 259.609375 283.761719 246.121094 C 282.136719 234.71875 277.46875 221.464844 269.894531 206.691406 C 285.695312 201.597656 298.367188 195.527344 307.582031 188.613281 C 318.476562 180.4375 324 171.484375 324 162 C 324 152.515625 318.476562 143.5625 307.582031 135.386719 " fill-opacity="1" fill-rule="nonzero"/><path fill="#000000" d="M 193.039062 158.675781 L 162.234375 189.480469 L 131.429688 158.675781 C 128.542969 155.789062 126.953125 151.953125 126.953125 147.871094 C 126.953125 143.789062 128.542969 139.953125 131.429688 137.066406 C 134.316406 134.179688 138.152344 132.59375 142.230469 132.59375 C 146.3125 132.59375 150.152344 134.179688 153.035156 137.066406 L 159.804688 143.832031 C 161.148438 145.175781 163.320312 145.175781 164.664062 143.832031 L 171.429688 137.066406 C 174.316406 134.179688 178.152344 132.59375 182.230469 132.59375 C 186.3125 132.59375 190.148438 134.179688 193.039062 137.066406 C 195.921875 139.953125 197.511719 143.789062 197.511719 147.871094 C 197.511719 151.953125 195.921875 155.789062 193.039062 158.675781 Z M 197.894531 132.210938 C 193.710938 128.027344 188.148438 125.71875 182.230469 125.71875 C 176.316406 125.71875 170.753906 128.027344 166.570312 132.210938 L 162.234375 136.546875 L 157.898438 132.210938 C 153.710938 128.027344 148.152344 125.71875 142.230469 125.71875 C 136.316406 125.71875 130.757812 128.027344 126.570312 132.210938 C 122.386719 136.390625 120.082031 141.953125 120.082031 147.871094 C 120.082031 153.789062 122.386719 159.351562 126.570312 163.535156 L 159.804688 196.765625 C 160.476562 197.4375 161.355469 197.773438 162.234375 197.773438 C 163.113281 197.773438 163.992188 197.4375 164.664062 196.765625 L 197.894531 163.535156 C 202.078125 159.351562 204.382812 153.789062 204.382812 147.871094 C 204.382812 141.953125 202.078125 136.390625 197.894531 132.210938 " fill-opacity="1" fill-rule="nonzero"/></svg>